<?xml version="1.0" encoding="utf-8"?>
<!-- Generator: Adobe Illustrator 25.2.0, SVG Export Plug-In . SVG Version: 6.00 Build 0)  -->
<svg version="1.1" id="Layer_1" xmlns="http://www.w3.org/2000/svg" xmlns:xlink="http://www.w3.org/1999/xlink" x="0px" y="0px"
	 viewBox="0 0 841.9 595.3" style="enable-background:new 0 0 841.9 595.3;" xml:space="preserve">
<style type="text/css">
	.st0{fill:#ED1941;}
	.st1{fill:#2E3B42;}
	.st2{fill:#506B73;}
	.st3{fill:#FFFFFF;}
</style>
<g>
	<path class="st0" d="M439.2,522.6v-13.2l-2.7,1.1l-0.7-4.8l5-1.6h3.6v18.5H439.2z"/>
	<path class="st0" d="M467.5,522.8c-0.8,0-1.9-0.1-2.7-0.3l0.4-4.4c0.7,0.2,1.5,0.3,2.5,0.3c2,0,2.9-0.9,2.9-2c0-1.1-1-1.9-3.2-1.9
		c-0.8,0-1.5,0.1-2.1,0.2v-10.6h10.1v4.7l-5.4-0.1v1.9c3.5,0,5.9,1.9,5.9,5.4C475.9,520.3,472.5,522.8,467.5,522.8z"/>
	<path class="st0" d="M488,522.9c-1.3,0-2.6-0.1-3.8-0.4l0.3-4.6c1,0.4,2.5,0.7,3.9,0.7c1.2,0,2-0.5,2-1.4c0-2.7-6.9-1.1-6.9-7.4
		c0-3.7,2.8-6,7.7-6c0.9,0,2.2,0.1,3.4,0.3l-0.3,4.4c-1.1-0.3-2.2-0.5-3.3-0.5c-1.4,0-2,0.6-2,1.3c0,2.3,6.9,1.4,6.9,7.2
		C495.9,520.2,492.9,522.9,488,522.9z"/>
	<path class="st0" d="M498.1,522.6v-18.5h10.8v4.3h-5.7v2.6h5.4v4.2h-5.4v3h5.7v4.4H498.1z"/>
	<path class="st0" d="M517.2,516.9c-0.1,0-0.4,0-0.8,0v5.7h-5.1v-18.5c1.7-0.1,3.6-0.1,5.6-0.1c4.9,0,7.6,2.1,7.6,6.2
		C524.5,513.8,522.1,516.9,517.2,516.9z M516.9,508.1c-0.1,0-0.3,0-0.5,0v4.5c0.2,0,0.3,0,0.4,0c1.3,0,2.5-0.8,2.5-2.4
		C519.3,509.1,518.6,508.1,516.9,508.1z"/>
	<path class="st0" d="M534.4,508.5v14.1h-5.1v-14.1h-4v-4.4h13.1v4.4H534.4z"/>
	<path class="st0" d="M539.9,522.6v-18.5h10.8v4.3H545v2.6h5.4v4.2H545v3h5.7v4.4H539.9z"/>
	<path class="st0" d="M570.1,522.6l-1-6.2c-0.2-1.2-0.4-2.6-0.5-4.2h-0.1c-0.3,1.6-0.7,3.1-1.1,4.8l-1.5,5.5h-4.8l-1.4-4.9
		c-0.5-1.7-1-3.6-1.2-5.4h-0.1c-0.2,1.8-0.4,3.2-0.5,4.6l-0.8,5.7H552l3.1-18.5h5.7l1.9,6.4c0.4,1.3,0.7,2.6,1,4.2h0.1
		c0.3-1.6,0.6-2.8,1.1-4.3l2-6.3h5.6l3,18.5H570.1z"/>
	<path class="st0" d="M583.4,522.6c-1.1,0-3.3-0.1-6.4-0.1v-18.4c1.9-0.1,5.1-0.2,7.4-0.2c4,0,6.6,1.5,6.6,4.8c0,1.6-1,3.1-2.4,3.9
		v0.1c1.6,0.5,2.7,2.2,2.7,4C591.2,520,588.7,522.6,583.4,522.6z M583.6,508.1c-0.6,0-1,0-1.4,0.1v3.1c0.3,0,0.7,0,1.1,0
		c1.6,0,2.3-0.7,2.3-1.8C585.6,508.6,584.8,508.1,583.6,508.1z M583.5,515c-0.2,0-1,0-1.3,0v3.4c0.3,0,0.9,0.1,1.3,0.1
		c1.4,0,2.3-0.6,2.3-1.8C585.8,515.8,585,515,583.5,515z"/>
	<path class="st0" d="M593.6,522.6v-18.5h10.8v4.3h-5.7v2.6h5.4v4.2h-5.4v3h5.7v4.4H593.6z"/>
	<path class="st0" d="M615.6,522.6l-3.5-6.7h-0.2v6.7h-5.1v-18.5c1.7-0.1,4-0.1,6.3-0.1c4.7,0,7.3,1.7,7.3,5.8
		c0,2.2-1.2,4.3-3.4,5.1c0.5,0.7,0.9,1.4,1.3,2.1l3.3,5.6H615.6z M612.9,508.2c-0.3,0-0.8,0-1,0.1v4c0.2,0,0.6,0.1,0.8,0.1
		c1.4,0,2.4-0.7,2.4-2.1C615.1,509.1,614.6,508.2,612.9,508.2z"/>
	<path class="st0" d="M628.7,522.6v-4.3l1.8-1.9c3.4-3.5,4-5.4,4-6.3c0-1-0.7-1.7-1.8-1.7c-1.1,0-2.3,0.4-3.1,1l-0.8-4.5
		c1.2-0.6,3-1.1,5.3-1.1c4.2,0,6,2.5,6,5.4c0,2.2-1.2,5-4.2,8.1l-0.5,0.5l0,0c2.3-0.1,3.4-0.1,5-0.1v4.9H628.7z"/>
	<path class="st0" d="M649.3,522.9c-3.7,0-7.4-2.1-7.4-9.3c0-6.5,3.8-9.7,7.8-9.7c5.9,0,7.5,4.5,7.5,9.3
		C657.2,519.6,653.5,522.9,649.3,522.9z M649.8,508c-1.5,0-2.5,1.3-2.5,5.2c0,3.7,0.5,5.4,2.2,5.4c1.2,0,2.4-1.4,2.4-5.4
		C651.9,509.5,651.2,508,649.8,508z"/>
	<path class="st0" d="M658.8,522.6v-4.3l1.8-1.9c3.4-3.5,4-5.4,4-6.3c0-1-0.7-1.7-1.8-1.7c-1.1,0-2.3,0.4-3.1,1l-0.8-4.5
		c1.2-0.6,3-1.1,5.3-1.1c4.2,0,6,2.5,6,5.4c0,2.2-1.2,5-4.2,8.1l-0.5,0.5l0,0c2.3-0.1,3.4-0.1,5-0.1v4.9H658.8z"/>
	<path class="st0" d="M675.1,522.6v-13.2l-2.7,1.1l-0.7-4.8l5-1.6h3.6v18.5H675.1z"/>
</g>
<g>
	<g id="llende_1_">
		<path class="st1" d="M346.5,307.5c0,0,8.1,8.3,12,22.6c1.7,6.3,2.6,13.1,1.2,22.2c-2.5,16.5-12.2,32-20.7,41.8
			c6.8,0,43.9,0,43.9,0l8.5-17h-22.2c0,0,18.8-32.4,13.1-75.4C375.7,299.8,360.4,298.2,346.5,307.5z"/>
		<path class="st1" d="M390.6,303.7c0,0,2.9,32.4-11.7,66.6c12.6,0,32.1,0,32.1,0l6.1-17.1h-15.3c0,0,8.5-17.1,13.5-42.7
			C403,306.1,390.6,303.7,390.6,303.7z"/>
		<path class="st1" d="M422.3,313.9c0,0-2.8,13.8-7.6,26.2c8.6,0,12.4,0,12.4,0l-12.2,37h-15.2l-7.4,17l59.8,0l5.9-17h-25.6
			l3.6-10.5l11.7,0l4.6-13.3h-12.5l4.2-13.2h25l5.4-15.4C474.3,324.7,446.7,321.4,422.3,313.9z"/>
		<path class="st1" d="M458.3,394.1l21.9-68.7c0,0,14,1.8,19.6,2.4c0.5,5.9,2.7,37.1,2.7,37.1l12.9-36c0,0,10.5,0.7,15.8,0.5
			c-2.7,7.1-22.7,64.7-22.7,64.7H487l-2.6-33.6l-10.4,33.6L458.3,394.1L458.3,394.1z"/>
		<g>
			<path class="st1" d="M571.6,327.8c-17.1,0.6-33.2,1.3-33.2,1.3l-22.7,65.1c0,0,33.3-0.1,37.7-0.1s12.7-1.5,15.8-9.9
				c3-8.4,11.9-34.3,12.7-36.4C582.7,345.7,588.7,327.2,571.6,327.8z M565,349.8c-0.7,2.1-6,16.8-7.8,21.7c-1.8,4.8-5.3,5.7-7.1,5.7
				s-9.5,0-9.5,0l11.9-33.4c0,0,6.9-0.1,10.2-0.1S565.6,347.9,565,349.8z"/>
		</g>
		<path class="st1" d="M596,326.1l-22.6,68h47.9c0,0,5.2-5.2,10.9-16.9c-5.5,0-34.5,0-34.5,0l3.3-10.2h12.6l4.5-13.7h-12.7l3.4-10
			c0,0,31.8-0.2,35.8-0.4c3.9-0.2,11.9-0.5,17.4-8.5c5.5-8,10.2-22.2,10.2-22.2s-11.9,5-24.5,8C627.8,324.8,596,326.1,596,326.1z"/>
	</g>
	<g id="wheel_1_">
		<path class="st1" d="M346.5,320.2c-0.3-0.1-1.5,0.9-1.9,1.2c-0.2,0.1-0.3,0.3-0.5,0.4c-0.5,0.4-0.5,3.3-0.1,4.5l0,0.1
			c0.2,0,0.9-0.4,1.2-0.6c0.4-0.2,0.7-0.5,1.1-0.6c0.9-0.3,3.8-0.3,4.9-0.1c-0.4-1.1-0.9-2.1-1.4-3.2
			C349,321.8,348,321.2,346.5,320.2L346.5,320.2z"/>
		<g>
			<path class="st1" d="M354.7,338.5c-0.2,0.6-0.5,1.2-1,1.5c-0.5,0.3-1.3,0.2-2.6-0.1c-0.9-0.2-1.8-0.3-2.5-0.2
				c-1.2,0.1-1.7,1-2.2,1.9c-0.1,0.2-0.3,0.3-0.5,0.3c-0.1,0-0.2,0-0.2-0.1c0.2,1.7,0.3,3.4,0.3,5.1c0,0.5,0,1,0,1.5
				c0.1,0,0.3,0.1,0.4,0.2c0.8,0.9,1.5,1,2.6,1.2l0.2,0c0.5,0.1,1.1-0.1,1.7-0.2c0.6-0.2,1.3-0.3,2-0.3c0.7,0,1.4-1.2,1.8-2.4
				c0-0.1,0-0.3-0.1-0.4c-0.2-0.4-0.9-0.9-1.9-1.1c-1.8-0.5-5.2-0.1-5.2-0.1c-0.3,0-0.6-0.2-0.6-0.5c0-0.3,0.2-0.6,0.5-0.6
				c0.1,0,3.7-0.4,5.6,0.1c0.9,0.2,1.6,0.6,2.1,1.1c0-0.3,0-0.7,0-1C355,342.4,354.9,340.4,354.7,338.5z"/>
			<path class="st1" d="M352.6,350.3c-0.5,0-1.1,0.1-1.7,0.2c-0.5,0.1-1.1,0.3-1.6,0.3c-0.2,0-0.3,0-0.5,0l-0.2,0
				c-1-0.2-1.9-0.3-2.8-1.1c-1.5,27.8-24.9,50-53.5,50c-2.1,0-4.2-0.1-6.3-0.4c3.8,0.8,7.8,1.3,11.9,1.3c7.2,0.1,14.6-1.4,21.5-4.3
				c-0.1-0.4-0.2-0.8-0.3-0.9c-0.2-0.3-0.1-0.6,0.1-0.8c0.3-0.2,0.6-0.1,0.8,0.1c0.2,0.2,0.3,0.7,0.5,1.1c0.9-0.4,1.8-0.8,2.7-1.3
				c-0.4-0.2-1.2-0.8-1.5-0.8s-0.5-0.4-0.5-0.7c0.1-0.3,0.4-0.5,0.7-0.5c0.5,0.1,1.3,0.6,2,1l0.1,0.1c0.1,0.1,0.2,0.2,0.2,0.3
				c0.7-0.4,1.4-0.7,2.1-1.1c-0.7-0.7-1.3-1.6-1.5-2.2c-0.1-0.3,0-0.6,0.3-0.7s0.6,0,0.7,0.3c0.3,0.7,0.9,1.5,1.5,2
				c1.8-1.1,3.6-2.3,5.3-3.6c-0.2-0.1-0.5-0.2-0.9-0.2c-1.7-0.2-3.7,0.4-3.7,0.4c-0.3,0.1-0.6-0.1-0.7-0.4s0.1-0.6,0.4-0.7
				c0.1,0,2.3-0.7,4.2-0.5c0.8,0.1,1.3,0.3,1.8,0.5c1-0.8,1.9-1.6,2.9-2.4c-0.4-0.1-0.8-0.3-1.2-0.5c-1.5-0.6-2.1-0.6-3-0.3
				c-0.3,0.1-0.6-0.1-0.7-0.4s0.1-0.6,0.4-0.7c1.2-0.4,2.1-0.3,3.8,0.3c0.7,0.3,1.2,0.5,1.7,0.6c0.8-0.7,1.5-1.4,2.2-2.2
				c-0.1,0-0.2,0-0.3,0c-0.2,0-0.3,0-0.5,0.1c-0.8,0.1-1.5-0.5-2.1-1.1c-0.3-0.2-0.7-0.6-0.9-0.6c-0.3,0-0.5-0.3-0.5-0.6
				s0.3-0.5,0.6-0.5c0.5,0.1,1,0.5,1.5,0.9c0.4,0.3,0.9,0.9,1.2,0.8c0.1,0,0.3,0,0.4-0.1c0.5-0.1,1-0.1,1.6-0.1
				c0.4-0.5,0.9-1,1.3-1.5c-0.3,0-0.6-0.1-0.9-0.2l-0.5-0.3c-0.6-0.4-2.3-1.5-2.7-1.4c-0.3,0.1-0.6,0-0.7-0.2
				c-0.1-0.3,0-0.6,0.3-0.8c0.7-0.4,1.8,0.2,3.8,1.5l0.4,0.3c0.2,0.2,0.6,0,1.2-0.2c0.1,0,0.2-0.1,0.3-0.1c0.5-0.6,1-1.3,1.4-1.9
				c-0.6,0.2-1.1,0.5-1.5,0.5c-0.2,0-0.5-0.1-0.7-0.2c-0.4-0.3-0.9-0.7-1.3-1.2c-0.4-0.4-1-1-1.2-1c-0.3-0.1-0.5-0.4-0.4-0.7
				c0.1-0.3,0.4-0.5,0.7-0.5c0.5,0.1,1,0.6,1.8,1.4c0.4,0.4,0.8,0.9,1.1,1c0.2,0.1,1-0.3,1.5-0.5c0.4-0.2,0.9-0.4,1.3-0.5
				c0.8-1.2,1.5-2.4,2.2-3.6c-0.6-0.3-1.2-0.5-1.8-0.6c-1.5-0.2-2.8,0.3-3.9,0.8c-0.3,0.1-0.6,0-0.8-0.3c-0.1-0.3,0-0.6,0.3-0.8
				c1.2-0.6,2.7-1.2,4.6-0.9c0.7,0.1,1.5,0.4,2.2,0.7c0.3-0.6,0.6-1.2,0.9-1.8c-1.4-0.5-3.1-1.1-3.6-1.1c-0.3,0-0.6-0.2-0.6-0.6
				s0.2-0.6,0.6-0.6c0.7,0,2.7,0.6,4.1,1.2c0.5-1.1,1-2.3,1.4-3.5c-0.3,0-0.5,0-0.9,0c-2-0.1-3.9,0.6-4.8,0.9
				c-0.3,0.1-0.5,0.2-0.6,0.2c0,0-0.1,0-0.1,0c-0.3,0-0.5-0.2-0.5-0.5c-0.1-0.3,0.1-0.6,0.4-0.7c0.1,0,0.2-0.1,0.5-0.1
				c1-0.4,3-1.1,5.3-1c0.5,0,0.9,0,1.2,0.1c0.4-1.1,0.7-2.2,1-3.3c-1-0.1-2.3,0.2-2.9,0.5c-0.3,0.2-0.6,0.1-0.8-0.2
				c-0.2-0.3-0.1-0.6,0.2-0.8c0.9-0.5,2.5-0.9,3.8-0.6c0.2-0.9,0.5-1.9,0.6-2.9c-1.8-0.1-3.8,0-4.3,0.6c-0.2,0.3-0.4,0.5-0.6,0.8
				c-0.8,1-1.5,2-2.6,2c-0.3,0-0.6-0.2-0.6-0.6s0.2-0.6,0.6-0.6c0.5,0,1.1-0.8,1.7-1.6c0.2-0.3,0.4-0.6,0.7-0.9c1-1.2,3.9-1.1,5.4-1
				c0.3-1.7,0.5-3.4,0.7-5.2C354.3,349.7,353.6,350.4,352.6,350.3z M342.9,372.9c0.4-0.3,1.3-0.6,2.1-0.8l0.2,0
				c0.3-0.1,0.6,0.1,0.7,0.4c0.1,0.3-0.1,0.6-0.4,0.7l-0.2,0c-0.4,0.1-1.4,0.4-1.7,0.6c-0.1,0.1-0.2,0.1-0.3,0.1
				c-0.2,0-0.4-0.1-0.5-0.2C342.6,373.4,342.7,373.1,342.9,372.9z"/>
			<path class="st1" d="M292.3,294.1c24.4,0,45,16.1,51.4,38c0.1-0.1,0.1-0.1,0.2-0.2c0.3-0.1,0.6,0,0.7,0.3
				c0.4,1.1,1.8,2.5,2.2,2.6c0.5,0,3.3-0.7,5.7-1.5c0.3-0.1,0.6,0.1,0.7,0.4c0.1,0.3-0.1,0.6-0.4,0.7c-1.5,0.5-5.1,1.5-6.1,1.5
				c0,0-0.1,0-0.1,0c-0.8-0.1-1.9-1.3-2.6-2.4c0.6,2.3,1,4.7,1.3,7.1c0.5-0.8,1.3-2,2.9-2.2c0.8-0.1,1.8,0.1,2.8,0.3
				c0.6,0.1,1.6,0.3,1.9,0.2c0.3-0.1,0.6-1,0.7-1.7c0-0.3,0.4-0.5,0.6-0.5l0,0c-0.3-2.3-0.8-4.5-1.5-6.7c-0.6,0.5-1.3,0.3-1.9,0.1
				c-0.4-0.1-0.7-0.2-1-0.1c-1,0.2-2.3,0.7-3.1,1.1c-0.1,0-0.2,0.1-0.3,0.1c-0.2,0-0.4-0.1-0.5-0.3c-0.2-0.3-0.1-0.6,0.2-0.8
				c0.9-0.5,2.3-1,3.5-1.2c0.5-0.1,1.1,0,1.5,0.2c0.8,0.2,0.8,0.2,0.9,0c0.1-0.1,0.2-0.2,0.3-0.2c-0.3-0.9-0.6-1.9-1-2.8
				c-0.1,0.1-0.4,0.2-0.6,0.1c-0.7-0.2-3.6-0.2-4.3,0c-0.2,0.1-0.5,0.3-0.8,0.5c-0.6,0.4-1.2,0.8-1.8,0.8c-0.1,0-0.2,0-0.4,0
				c-0.2-0.1-0.5-0.2-0.7-0.7c-0.5-1.1-0.8-4.8,0.4-5.8c0.1-0.1,0.3-0.2,0.4-0.4c1-0.9,2.3-2,3.2-1.3l0.1,0.1
				c0.8,0.6,1.5,0.9,1.9,1.2c-0.6-1.2-1.4-2.5-2.1-3.6c-0.1,0-0.2-0.1-0.3-0.1c-0.4-0.1-0.9-0.3-1.1-0.3c-0.6,0-3.2,1.2-4.1,1.7
				c-0.1,0-0.2,0.1-0.3,0.1c-0.2,0-0.4-0.1-0.5-0.3c-0.1-0.3,0-0.6,0.2-0.8c0,0,3.5-1.8,4.7-1.8c0.1,0,0.3,0,0.4,0
				c-0.6-0.8-1.1-1.6-1.7-2.4c-0.3,0.1-0.7,0.2-1.1,0.4c-1,0.3-2,0.7-2.5,1c-0.9,0.5-1.7,1.2-2,1.9c-0.1,0.2-0.3,0.3-0.5,0.3
				c-0.1,0-0.2,0-0.3-0.1c-0.3-0.1-0.4-0.5-0.2-0.8c0.5-0.9,1.4-1.8,2.5-2.4c0.5-0.3,1.6-0.7,2.6-1c0.3-0.1,0.5-0.2,0.7-0.3
				c-0.4-0.5-0.9-1-1.3-1.5c-0.1,0-0.3,0-0.5-0.1c-0.2-0.1-0.8-0.2-1.4,0c-0.3,0.1-0.7,0.1-1,0.1c-0.7,0-1.5-0.2-2.2-0.7
				c-1.5-0.9-2.8-1.3-3.5-1.1c-0.3,0.1-0.6-0.1-0.7-0.4c-0.1-0.3,0.1-0.6,0.4-0.7c1.3-0.3,3.1,0.5,4.3,1.3c1.1,0.7,1.9,0.6,2.3,0.4
				c0.3-0.1,0.6-0.1,1-0.1c-0.8-0.8-1.5-1.6-2.3-2.4c-0.5,0.1-1.1,0.3-1.3,0.5c-0.1,0.1-0.2,0.1-0.3,0.1c-0.2,0-0.4-0.1-0.5-0.2
				c-0.2-0.2-0.1-0.6,0.1-0.8c0.2-0.2,0.6-0.3,1-0.5c-0.6-0.5-1.1-1-1.7-1.5c0.1,0.2,0,0.4-0.1,0.6c-0.5,0.5-1.9,0.9-2.7,1
				c-1,0.1-2.9,0.8-3.2,1.1c-0.1,0.2-0.3,0.3-0.5,0.3c-0.1,0-0.2,0-0.2,0c-0.3-0.1-0.4-0.5-0.3-0.8c0.5-1.1,4-1.7,4-1.7
				c0.8-0.1,1.9-0.5,2.1-0.7c0.1-0.1,0.3-0.2,0.5-0.1c-2.3-1.9-4.8-3.5-7.4-5c-0.5,0.5-1.9,0.9-2.7,1c-1,0.1-2.9,0.8-3.2,1.1
				c-0.1,0.2-0.3,0.3-0.5,0.3c-0.1,0-0.2,0-0.2,0c-0.3-0.1-0.4-0.5-0.3-0.8c0.5-1.1,4-1.7,4-1.7c0.6-0.1,1.3-0.3,1.7-0.5
				c-0.5-0.3-1-0.6-1.6-0.8c-0.1,0-0.2,0-0.3,0c-0.2-0.1-0.8,0-1.4,0.4c-0.6,0.4-1.3,0.6-2,0.6c-0.4,0-0.8,0-1.2-0.1
				c-1.7-0.4-3-0.4-3.7,0c-0.3,0.2-0.6,0.1-0.8-0.2s-0.1-0.6,0.2-0.8c1.2-0.7,3.1-0.4,4.5-0.1c1.3,0.3,2,0,2.4-0.3
				c0.1-0.1,0.3-0.2,0.5-0.3c-0.7-0.3-1.4-0.6-2.1-0.9c0,0,0,0-0.1,0c-0.7,0.2-1.5-0.1-2.3-0.4c-0.4-0.1-0.9-0.3-1.1-0.3
				c-0.6,0-3.2,1.2-4.1,1.7c-0.1,0-0.2,0.1-0.3,0.1c-0.2,0-0.4-0.1-0.5-0.3c-0.1-0.3,0-0.6,0.2-0.8c0,0,2.2-1.1,3.7-1.6
				c-1.6-0.5-3.2-0.9-4.8-1.2c0,0,0,0,0,0c-0.5,1-1.5,0.7-2.2,0.5c-0.4-0.1-0.7-0.2-1-0.1c-1,0.2-2.3,0.7-3.1,1.1
				c-0.1,0-0.2,0.1-0.3,0.1c-0.2,0-0.4-0.1-0.5-0.3c-0.2-0.3-0.1-0.6,0.2-0.8c0.8-0.5,2-0.9,3-1.2c-2.4-0.3-4.8-0.5-7.3-0.5
				c-7.2,0-14.5,1.3-21.3,3.6C283.8,294.6,288,294.1,292.3,294.1z M335.5,312.1c0.4-0.3,1.3-0.6,2.1-0.8l0.2,0
				c0.3-0.1,0.6,0.1,0.7,0.4c0.1,0.3-0.1,0.6-0.4,0.7l-0.2,0c-0.4,0.1-1.4,0.4-1.7,0.6c-0.1,0.1-0.2,0.1-0.3,0.1
				c-0.2,0-0.4-0.1-0.5-0.2C335.2,312.6,335.2,312.3,335.5,312.1z M328.4,302.8c0.3-0.4,0.7-0.8,1.2-1c0.7-0.2,2-0.2,2.2-0.2
				c0.3,0,0.6,0.2,0.6,0.6s-0.2,0.6-0.6,0.6c-0.4,0-1.4,0-1.9,0.2c-0.2,0-0.4,0.3-0.6,0.6c-0.2,0.3-0.5,0.6-1,1
				c-0.1,0.1-0.2,0.1-0.3,0.1c-0.2,0-0.4-0.1-0.5-0.2c-0.2-0.2-0.1-0.6,0.1-0.8C328,303.3,328.2,303.1,328.4,302.8z M325.4,301.5
				c0.5,0,0.7-0.1,1-0.2c0.2-0.1,0.4-0.1,0.6-0.2c0.3,0,0.6,0.2,0.6,0.5s-0.2,0.6-0.5,0.6c-0.1,0-0.2,0.1-0.3,0.1
				c-0.3,0.1-0.7,0.3-1.3,0.3c-0.1,0-0.1,0-0.2,0c-0.3,0-0.5-0.3-0.5-0.6C324.9,301.7,325.1,301.5,325.4,301.5z M310.8,294.7
				c0.5,0,0.7-0.1,1-0.2c0.2-0.1,0.4-0.1,0.6-0.2c0.3,0,0.6,0.2,0.6,0.5s-0.2,0.6-0.5,0.6c-0.1,0-0.2,0.1-0.3,0.1
				c-0.3,0.1-0.7,0.3-1.3,0.3c-0.1,0-0.1,0-0.2,0c-0.3,0-0.5-0.3-0.5-0.6C310.2,294.9,310.5,294.7,310.8,294.7z M301.8,292.6
				c0.5,0,0.7-0.1,1-0.2c0.2-0.1,0.4-0.1,0.6-0.2c0.3,0,0.6,0.2,0.6,0.5s-0.2,0.6-0.5,0.6c-0.1,0-0.2,0.1-0.3,0.1
				c-0.3,0.1-0.7,0.3-1.3,0.3c-0.1,0-0.1,0-0.2,0c-0.3,0-0.5-0.3-0.5-0.6C301.2,292.9,301.5,292.6,301.8,292.6z"/>
		</g>
		<path class="st1" d="M291,296.2c-28.9,0-52.3,23.1-52.3,51.7c0,28.5,23.4,51.7,52.3,51.7s52.3-23.1,52.3-51.7
			C343.3,319.4,319.9,296.2,291,296.2z M315.1,354.3c-3.8,13.4-17.9,21.3-31.5,17.5C270,368,262,354,265.8,340.5
			c3.8-13.4,17.9-21.3,31.5-17.5C310.8,326.9,318.8,340.9,315.1,354.3z"/>
		<path class="st1" d="M292.1,341.5c-3.3-0.9-6.7,1-7.6,4.2c-0.9,3.3,1,6.7,4.3,7.6s6.7-1,7.6-4.2
			C297.3,345.8,295.4,342.4,292.1,341.5z M293.8,348.4c-0.5,1.9-2.5,2.9-4.3,2.4c-1.9-0.5-3-2.5-2.5-4.3c0.5-1.9,2.5-2.9,4.3-2.4
			C293.2,344.6,294.3,346.5,293.8,348.4z"/>
		<g>
			<path class="st1" d="M297.9,324.7c-0.1,0.5-0.7,0.9-1.3,0.7c-0.6-0.1-0.9-0.7-0.7-1.3s0.7-0.9,1.3-0.7
				C297.7,323.5,298,324.1,297.9,324.7z"/>
			<path class="st1" d="M271.6,333.8c-0.1,0.5-0.7,0.9-1.3,0.7c-0.6-0.2-0.9-0.7-0.7-1.3s0.7-0.9,1.3-0.7
				C271.4,332.7,271.8,333.3,271.6,333.8z"/>
			<path class="st1" d="M282.9,325.5c-0.4,0.4-1.1,0.3-1.5-0.2c-0.4-0.5-0.3-1.1,0.1-1.5s1.1-0.3,1.5,0.2
				C283.4,324.5,283.3,325.1,282.9,325.5z"/>
			<path class="st1" d="M308.5,333c-0.5-0.3-0.6-0.9-0.3-1.4c0.3-0.5,0.9-0.6,1.4-0.4s0.6,0.9,0.3,1.4
				C309.6,333.2,309,333.3,308.5,333z"/>
			<path class="st1" d="M309.4,360.8c0.2-0.5,0.8-0.9,1.3-0.7s0.9,0.8,0.7,1.3c-0.2,0.5-0.8,0.9-1.3,0.7
				C309.5,362,309.2,361.4,309.4,360.8z"/>
			<path class="st1" d="M283.6,369.2c0.6,0,1,0.5,1,1.1s-0.5,1-1.1,1c-0.6,0-1-0.5-1-1.1C282.5,369.7,283,369.2,283.6,369.2z"/>
			<path class="st1" d="M267.2,347.4c0.1,0.6-0.2,1.1-0.8,1.2c-0.6,0.1-1.1-0.2-1.2-0.8c-0.1-0.6,0.2-1.1,0.8-1.2
				C266.6,346.4,267.1,346.8,267.2,347.4z"/>
			<path class="st1" d="M272.3,362.3c-0.1,0.5-0.7,0.9-1.3,0.7c-0.6-0.2-0.9-0.7-0.7-1.3s0.7-0.9,1.3-0.7
				C272.1,361.2,272.5,361.7,272.3,362.3z"/>
			<path class="st1" d="M299.7,370.3c-0.1,0.5-0.7,0.9-1.3,0.7s-0.9-0.7-0.7-1.3s0.7-0.9,1.3-0.7
				C299.5,369.2,299.9,369.7,299.7,370.3z"/>
			<path class="st1" d="M315.6,346.6c-0.1,0.5-0.7,0.9-1.3,0.7c-0.6-0.2-0.9-0.7-0.7-1.3c0.1-0.5,0.7-0.9,1.3-0.7
				C315.4,345.5,315.8,346.1,315.6,346.6z"/>
		</g>
		<path class="st1" d="M296.5,325.7c-12.1-3.4-24.7,3.6-28.1,15.6c-3.4,12,3.8,24.5,15.9,27.9s24.7-3.6,28.1-15.6
			C315.8,341.6,308.6,329.1,296.5,325.7z M310.2,353c-3,10.8-14.3,17.1-25.3,14c-10.9-3.1-17.3-14.3-14.3-25.1s14.3-17.1,25.3-14
			C306.8,330.9,313.2,342.2,310.2,353z"/>
		<g>
			<path class="st1" d="M296,352.8c-1.7,1.8-4.3,2.7-6.9,2.2c0.7,1.1,2.6,3.9,3.6,6.5c0.8,2.2,1.2,4.5,1.4,6
				c2.2-0.4,4.4-1.1,6.4-2.2c-0.9-1.3-2.2-3.4-3-5.6C296.6,357.2,296.1,354.2,296,352.8z"/>
		</g>
		<g>
			<path class="st1" d="M281,358.1c2.2-1.7,5.1-3.1,6.4-3.6c-2.4-1.1-4.1-3.2-4.5-5.7c-0.8,1.1-2.9,3.7-5,5.4
				c-1.8,1.4-3.9,2.5-5.3,3.2c1.1,2,2.5,3.7,4.2,5.2C277.6,361.3,279.2,359.5,281,358.1z"/>
		</g>
		<g>
			<path class="st1" d="M282.7,346.7c0-0.4,0.1-0.9,0.2-1.3c0.6-2.1,2-3.7,3.8-4.7c-1.3-0.5-4.4-1.6-6.6-3.1c-2-1.3-3.7-3.1-4.8-4.2
				c-1.5,1.6-2.8,3.5-3.8,5.6c1.4,0.5,3.8,1.5,5.7,2.8C279.6,343.3,281.8,345.6,282.7,346.7z"/>
		</g>
		<g>
			<path class="st1" d="M288.8,340c1.2-0.2,2.4-0.2,3.7,0.1c1.2,0.4,2.3,1,3.2,1.8c0-1.5,0.2-4.6,0.9-7.1c0.6-2.3,1.7-4.4,2.5-5.8
				c-1-0.5-2.1-0.9-3.2-1.2s-2.2-0.5-3.3-0.6c0,1.5-0.2,4-0.9,6.2C291,336,289.5,338.7,288.8,340z"/>
		</g>
		<g>
			<path class="st1" d="M297.1,343.7c1,1.7,1.3,3.8,0.7,5.8c-0.1,0.5-0.3,0.9-0.5,1.4c1.4-0.4,4.5-1.2,7-1.3c2.5-0.1,5,0.3,6.5,0.6
				c0.3-2.3,0.2-4.6-0.3-6.9c-1.5,0.4-4,1.1-6.4,1.2C301.6,344.6,298.6,344,297.1,343.7z"/>
		</g>
	</g>
	<path id="R_1_" class="st1" d="M257.4,449.2c-15.9-13.5-23.3-57.9-28.8-88.1c-4.3-23.2-16-34.8-21.1-38.8
		c19.5,1.3,42-6.3,49.4-23.1c9.6-21.7-1.6-34.7-14.6-39.4c-9-3.3-33.2-3.9-80.9-6.9c-46.9-2.9-55.5-16.9-55.5-16.9
		c6.1,47.1,32.8,55.3,44.4,56.1c6.4,0.4,19.2-2.3,31-5.3l-80.4,165.1l55.8-0.3c0,0,21.4-75.4,39.3-130c5.9,6.1,4.1,24.6,0.6,41.7
		c-3.7,18.5-9,60.3-0.5,88.9c8.5,28.6,34.9,43.4,62.7,40.7c27.8-2.6,38.6-22.2,42.3-33.6C290.5,463.2,273.3,462.7,257.4,449.2z
		 M229.1,296c-4.1,15-22,16.9-30.5,17.5c4.6-13.8,8.9-25.8,12.3-34.2C221.8,278.8,232.3,284.3,229.1,296z"/>
</g>
<path class="st0" d="M683,215.4c11.1,3.3,27,5.9,36.4,5c-2.9-9.2-6.4-16.9-10.5-23.6C701.4,204,693,210,683,215.4z"/>
<path class="st0" d="M434.4,210.5c7.8-0.1,15.6,0.3,23.3,0.9c7.7,0.6,15.1,1.7,22.4,2.9c7.2,1.2,14.1,2.5,20.7,3.6
	c1.6,0.2,3.3,0.5,4.9,0.7c1.6,0.2,3.2,0.4,4.8,0.6c3.1,0.4,6.1,0.8,9,1.2c2.4,0.3,4.8,0.6,7,0.9c0.3-0.7,0.7-1.4,1.2-2.1
	c0.5-0.7,1.1-1.3,1.7-1.8c2.4-2.2,5.3-3.4,7.9-4.2c2.7-0.9,5.3-1.4,7.7-1.7c2.6-0.4,5-0.6,7.1-0.7c-4.2-5-16.2-9.2-28.6-12.4
	c-19.3-5-34.3-8.6-40.4-7.6c-0.7,0.1-1.4,0.4-2.1,0.8c-0.2,0.2-0.5,0.4-0.9,0.6c-1.1,0.8-2.9,1.8-5.2,2.7c-1.2,0.5-2.5,0.9-4,1.3
	c-1.5,0.4-3.1,0.6-4.8,0.9c-3.4,0.5-7.2,1.1-11.4,1.9c-4.1,0.9-8.5,2-12.9,3.8c-2.2,0.9-4.4,2-6.4,3.4c-1.8,1.2-3.4,2.7-4.7,4.4
	C431.8,210.5,433.1,210.5,434.4,210.5z"/>
<path class="st0" d="M388.8,215.2c1.8-0.4,3.6-0.7,5.4-1.1c1.8-0.3,3.7-0.6,5.6-0.9c1.9-0.3,3.7-0.5,5.6-0.8c1-0.1,1.9-0.2,2.9-0.4
	c1-0.1,1.9-0.2,2.9-0.3c1.9-0.2,3.8-0.4,5.8-0.5c1.9-0.1,3.9-0.2,5.8-0.4c1.6-0.1,3.2-0.2,4.8-0.2c0.1-0.2,0.3-0.5,0.5-0.7
	c1.6-2.4,3.8-4.2,5.9-5.7c2.2-1.5,4.5-2.6,6.9-3.5c4.6-1.8,9.2-2.9,13.4-3.7c4.2-0.8,8.1-1.2,11.5-1.7c1.7-0.2,3.3-0.4,4.7-0.7
	c1.4-0.3,2.7-0.7,3.8-1.1c-7.4-0.8-28.8-3.1-43.2-1.3c-14.7,1.8-29.7,8.6-37.2,12.2c-0.2,0.2-0.5,0.3-0.7,0.5c-2.9,2-6,4.2-8.9,6.9
	c-1.4,1.4-2.8,2.9-4.1,4.5c-0.3,0.4-0.5,0.7-0.8,1.1C382.3,216.6,385.5,215.9,388.8,215.2z"/>
<g>
	<path class="st0" d="M342.6,229c2.5-0.9,5.1-1.9,7.9-2.9c5.5-2,11.5-3.9,18-5.8c2.3-0.7,4.7-1.3,7.1-2c0.2-0.3,0.4-0.6,0.6-0.9
		c0.3-0.5,0.6-0.9,0.9-1.4c0.3-0.5,0.7-0.9,1-1.4c1.4-1.7,2.9-3.3,4.4-4.7c1.5-1.4,3-2.6,4.6-3.8c-4,0.3-10.9,1.1-17.3,3.5
		c-10,3.9-19.9,9.2-27,14.5c-1.4,1.4-2.7,2.9-4,4.5c-0.6,0.8-1.2,1.6-1.7,2.5C338.7,230.5,340.6,229.8,342.6,229z"/>
	<path class="st0" d="M384.2,284.8c-2.8-3.1-5.5-6.5-7.9-10.3c-2.4-3.8-4.6-8-6.2-12.5s-2.5-9.4-2.7-14.2c-0.2-4.9,0.4-9.8,1.7-14.4
		c1.2-4.4,3-8.6,5-12.4c-1.7,0.4-3.4,0.9-5.1,1.3c-6.4,1.8-12.5,3.5-18,5.3c-5.4,1.8-10.4,3.5-14.8,5.1c-0.8,1.4-1.5,2.9-2.3,4.5
		c-1.4,3.1-2.7,6.4-3.7,9.8c-1,3.4-1.6,7-1.8,10.5c-0.1,1.8,0,3.6,0.2,5.3c0.2,1.8,0.5,3.5,1,5.2c0.9,3.4,2.4,6.5,4.2,9.3
		c1.8,2.8,4,5.3,6.3,7.4c2.3,2.1,4.6,3.9,6.9,5.4c2,1.3,4,2.4,5.8,3.4c8.9,0.8,27.5-0.5,38.4-1.6
		C388.9,289.7,386.5,287.4,384.2,284.8z"/>
</g>
<path class="st0" d="M304.6,426.4c-0.6,0-1.4,0-2.1-0.1c-0.8-0.1-1.6-0.1-2.5-0.2c-0.9-0.1-1.9-0.1-2.9-0.2c-1-0.1-2.1-0.3-3.2-0.5
	c-0.5-0.1-1.1-0.2-1.7-0.2c-0.6-0.1-1.1-0.2-1.7-0.3c-1.2-0.2-2.4-0.5-3.6-0.8c-1.2-0.3-2.5-0.7-3.8-1c-1.3-0.4-2.6-0.9-3.9-1.3
	s-2.6-1.1-3.9-1.6c-1.3-0.6-2.6-1.3-3.9-1.9c-1.3-0.7-2.5-1.5-3.8-2.3l-1.8-1.3c-0.6-0.4-1.2-0.9-1.8-1.3l-1.7-1.4
	c-0.6-0.5-1.1-1-1.6-1.5c-1.1-1-2.1-2.1-3.1-3.1c-1.9-2.2-3.7-4.5-5.2-6.8c-0.8-1.1-1.4-2.4-2.1-3.5c-0.6-1.2-1.2-2.3-1.7-3.5
	c-1.1-2.3-1.9-4.6-2.6-6.7c-0.7-2.3-1.2-4.4-1.6-6.2c0.7,11.4,3.9,36.5,17.4,55.6c13.2,18.7,25.4,18.3,29.6,15.4
	c4.1-2.8,12.8-8.4,13.6-25.1C304.8,426.4,304.7,426.4,304.6,426.4z"/>
<path class="st0" d="M458.6,294.5c1.1-4.8,5.5-7.6,11.9-7.5c4.8,0.1,10.2,1.8,14,4.3c0.7-0.1,1.5-0.2,2.4-0.2
	c-1.1-1.2-2.4-2.6-3.9-3.9c-2.5-2.3-5.5-4.8-8.9-7.2s-7.2-5-11.3-7.6c-4.1-2.5-8.5-5.2-13.1-7.9c-4.6-2.7-9.3-5.4-14.1-8.5
	c-4.8-3.1-9-7.7-11.4-13.1c-2.4-5.4-2.9-11.6-2-17.2c0.4-2.9,1.2-5.6,2.1-8.2c0.5-1.3,1-2.6,1.6-3.9c0-0.1,0.1-0.2,0.1-0.3
	c-1.1,0-2.2,0.1-3.2,0.1c-1.9,0.1-3.8,0.2-5.8,0.3c-1.9,0.2-3.8,0.3-5.7,0.5c-1,0.1-1.9,0.2-2.8,0.2c-0.9,0.1-1.9,0.2-2.8,0.3
	c-1.9,0.2-3.8,0.4-5.6,0.7c-1.8,0.3-3.7,0.6-5.5,0.9c-1.8,0.3-3.6,0.7-5.4,1c-4,0.8-7.9,1.7-11.7,2.6c-0.3,0.5-0.6,1.1-0.9,1.6
	c-2.1,3.8-3.9,8-5.1,12.4c-1.2,4.4-1.8,9-1.7,13.6c0.2,4.6,1,9.2,2.5,13.5c1.5,4.3,3.5,8.4,5.8,12.1c2.3,3.7,4.9,7.1,7.5,10.1
	s5.4,5.7,8,8.1c0,0,0,0,0,0c8.7,3.6,32.9,13.4,59.4,15.5c4.3,0.4,7.8,0.6,10.8,0.7C460.3,304.2,457.5,299.6,458.6,294.5z"/>
<path class="st0" d="M475.3,278.4c3.4,2.6,6.4,5.1,8.9,7.6c1.8,1.8,3.4,3.5,4.7,5.1c0.8,0,1.7,0,2.5,0c4,0.1,9.3,0.6,14.5,2.3
	c28.4-12.9,54.1-25.6,54.9-30.4c0.2,0,0.3-0.1,0.5-0.2c-2.5-0.9-5.6-2.1-9.2-3.7c-4.4-2-9.4-4.7-14.3-8.3c-2.5-1.8-4.8-3.9-7-6.3
	c-2.1-2.4-4-5.2-5.1-8.4c-1.2-3.2-1.4-6.7-0.8-9.9c0.2-1.2,0.5-2.4,1-3.5c-2.1-0.2-4.3-0.4-6.6-0.7c-2.9-0.3-5.9-0.6-9-1
	c-1.6-0.2-3.1-0.3-4.8-0.5c-1.6-0.2-3.2-0.4-4.9-0.6c-6.7-0.9-13.6-2.1-20.8-3.2c-7.2-1.1-14.6-2-22.2-2.6c-7.6-0.6-15.3-0.9-23-0.8
	c-1.9,0-3.7,0.1-5.6,0.1c-0.2,0.5-0.5,0.9-0.7,1.4c-0.5,1.2-1,2.4-1.5,3.6c-0.9,2.5-1.6,5.1-2,7.8c-0.8,5.3-0.3,10.9,1.9,15.8
	c2.2,4.9,6,9,10.5,12c4.6,3,9.4,5.8,13.9,8.5s9,5.4,13,8.1C468.1,273.1,471.9,275.8,475.3,278.4z"/>
<g>
	<path class="st0" d="M516.6,195.1c1.8,0.5,3.7,1,5.5,1.4c1.8,0.5,3.5,1,5.2,1.6s3.3,1,4.9,1.5c0.8,0.2,1.5,0.5,2.2,0.7
		c0.6,0.2,1.1,0.4,1.6,0.6c0-0.2-0.1-0.4-0.1-0.6c-0.1-0.4-0.2-0.9-0.3-1.4c-0.1-0.5-0.4-1-0.5-1.6c-0.3-0.5-0.5-1.1-0.8-1.6
		c-0.2-0.3-0.3-0.6-0.5-0.8c-0.2-0.2-0.4-0.5-0.6-0.8c-0.4-0.5-0.9-1-1.3-1.4l-0.8-0.6c-0.3-0.2-0.5-0.4-0.8-0.6
		c-0.3-0.2-0.6-0.4-0.8-0.5s-0.5-0.4-0.8-0.5c-0.6-0.3-1.1-0.6-1.7-0.8c-0.2-0.1-0.3-0.1-0.4-0.2c-1.5-0.3-4.3-0.9-7.5,0.4
		c-2,0.8-4.8,2.6-6.7,3.9C513.6,194.3,515.1,194.7,516.6,195.1z"/>
	<path class="st0" d="M548.9,195.3c0-0.2,0-0.4,0-0.6c-0.1-1.6-0.5-3.4-1.4-4.9c-0.4-0.8-0.9-1.4-1.5-2c-0.6-0.6-1.2-1.1-1.9-1.5
		c-0.7-0.4-1.4-0.8-2.1-1.1c-0.7-0.3-1.4-0.5-2.1-0.6c-1-0.2-2-0.4-2.8-0.5c-4.8,0.4-6.8,1.8-8.9,3.7c0.4,0.2,0.9,0.3,1.4,0.5
		c0.7,0.2,1.3,0.7,2,1.1c0.7,0.4,1.3,1,1.9,1.5l0.8,0.9c0.3,0.3,0.6,0.6,0.8,0.9c0.2,0.3,0.4,0.7,0.7,1c0.2,0.3,0.4,0.7,0.5,1
		c0.4,0.7,0.5,1.4,0.8,2c0.2,0.7,0.3,1.3,0.4,1.9c0.1,0.6,0.1,1.1,0.1,1.6c0,0.5,0,0.9-0.1,1.2c2,0.8,3.8,1.4,5.1,1.9
		c1.1-0.4,3.2-1.2,3.5-1.3c0.1-0.1,0.2-0.2,0.4-0.4c0.5-0.6,1.3-1.4,1.8-2.6c0.3-0.6,0.5-1.3,0.6-2c0.1-0.4,0.1-0.8,0.1-1.1
		C548.9,195.8,548.9,195.5,548.9,195.3z"/>
</g>
<g>
	<path class="st0" d="M661.2,208.8c-0.7-0.3-1.5-0.6-2.2-0.8c-11.3,7-24.3,11.6-34.3,14.4c0.7,0.2,1.3,0.4,2,0.6
		c8.9,2.2,15.4,0.8,21.7-1.4c3.9-1.4,10.1-4,15.7-6.4c1.4-0.7,2.8-1.4,4.2-2.1C666.5,211.5,664.2,210.1,661.2,208.8z"/>
	<path class="st0" d="M685.9,172.4c-1.5,5.5-4,11.2-7.6,17.1c-3.5,5.8-8.5,10.8-14.3,15c3.3,1.2,6.4,3.1,9.3,5.6
		c10.2-5.7,20-12.3,28.1-20c0.5-0.5,1.1-1.1,1.6-1.6C698.1,182.5,692.5,177.3,685.9,172.4z"/>
</g>
<g>
	<path class="st0" d="M723.4,159c-0.1-4.9-1.3-9.9-3.8-14.4c-2.4-4.5-6.1-8.5-10.6-11.3c-1.1-0.7-2.3-1.3-3.5-1.9l-1-0.4l-0.9-0.3
		c-0.6-0.2-1.2-0.4-1.8-0.7c-2.5-0.9-5-1.6-7.5-2.1c-5.1-1.1-10.3-1.5-15.6-1.6c-2.1-0.1-4.2,0-6.3,0c2,1.5,3.8,3.2,5.5,5.1
		c0.2,0,0.5,0,0.7,0c5,0.1,10,0.4,14.7,1.4c2.4,0.5,4.7,1.1,6.9,1.8c2.3,0.8,4.4,1.6,6.3,2.8c3.9,2.3,7,5.6,9.1,9.4
		c2.1,3.8,3.2,8.1,3.4,12.4c0.1,2.1,0,4.3-0.3,6.4c-0.3,2.1-0.8,4.2-1.5,6.2c-1.3,4-3.3,7.7-5.5,11.1c-1.1,1.7-2.4,3.3-3.7,4.9
		c-0.6,0.8-1.3,1.5-2,2.2c-0.7,0.7-1.4,1.5-2.2,2.2c-2.8,2.7-5.8,5.3-8.9,7.6c-6.1,4.7-12.3,8.5-18.3,11.9
		c-12.1,6.6-23.3,11.1-32.6,14.4c-9.3,3.3-16.9,5.4-22,6.8c-5.2,1.3-7.9,1.9-7.9,1.9l1,1.9c0,0,2.2-0.3,7.4-1.6
		c5.2-1.2,12.8-3.2,22.3-6.4c9.5-3.2,20.9-7.5,33.3-14c6.2-3.3,12.6-7.1,19-11.9c0.8-0.6,1.6-1.2,2.4-1.8c0.8-0.6,1.6-1.3,2.3-1.9
		l1.2-1l1.2-1c0.8-0.7,1.5-1.3,2.3-2.1c0.7-0.7,1.5-1.4,2.2-2.2c0.7-0.8,1.5-1.6,2.2-2.4c1.4-1.6,2.8-3.4,4-5.2
		c2.5-3.6,4.7-7.7,6.2-12.1c0.8-2.2,1.3-4.5,1.7-6.9C723.3,163.8,723.5,161.4,723.4,159z"/>
	<path class="st0" d="M208.6,200.1c3.9,5.2,9.6,9.6,16.4,12.4c6.9,2.8,14.6,3.9,22.5,4.3c8,0.4,16.3,0,24.9-0.8
		c17.2-1.6,35.5-5,54.7-9.2c8.6-1.9,17.4-4,26.2-6.2c3-1,6-2.1,9-3.1c9.7-3.4,26.3-9.8,46.5-17.2c-7.9,1.9-15.7,3.9-23.4,5.8
		c-10.4,2.6-20.5,5.1-30.5,7.6c-10,2.5-19.7,5-29.2,7.1c-19,4.4-37.1,7.8-53.9,9.5c-8.4,0.8-16.5,1.3-24.1,1
		c-7.6-0.3-14.7-1.3-20.8-3.6c-6.1-2.4-11-6.1-14.4-10.5c-3.4-4.4-5.2-9.3-5.8-13.9c-0.7-4.6-0.2-8.8,0.6-12.3
		c0.9-3.5,2.1-6.4,3.2-8.7c0.5-1,6.3-9.9,6.3-9.9l-5.2,1.1c0,0-6.1,7.1-8.8,16.4c-1,4-1.6,8.8-0.9,14.1
		C202.7,189.1,204.7,194.9,208.6,200.1z"/>
	<path class="st0" d="M619.7,137.6l2-0.4l1-0.2l1-0.2c2.7-0.4,5.4-0.8,8-1.2c5.3-0.8,10.7-1.5,15.9-2.2c4.8-0.6,9.6-1.1,14.3-1.5
		c-3.2-1.8-6.8-3.3-10.7-4.4c-1.4,0.2-2.8,0.3-4.3,0.5c-5.3,0.6-10.7,1.3-16.1,2.1c-2.7,0.4-5.4,0.8-8.1,1.2l-1,0.1l-1.1,0.2l-2,0.3
		c-1.3,0.2-2.7,0.5-4.1,0.7c-2.7,0.4-5.4,1-8.2,1.5s-5.5,1.1-8.2,1.6c-5.5,1.1-10.9,2.3-16.4,3.4c-19.6,4.2-39.5,8.7-59.3,13.4
		c-15.4,5.7-32.1,11.9-48.9,18.1c14.4-3.5,28.8-7,43.3-10.5c22.1-5.3,44.3-10.5,66.2-15.4c5.5-1.2,10.9-2.4,16.3-3.5
		c2.7-0.5,5.4-1.1,8.1-1.6c2.7-0.5,5.4-1.1,8.1-1.5C617,138.1,618.3,137.8,619.7,137.6z"/>
</g>
<path class="st0" d="M609.2,221.7c0,0,0,0,1.2-0.2c1.2-0.3,3.1-0.8,5.4-1.4c4.7-1.4,11.7-3.5,20.1-7.1c4.2-1.8,8.8-4,13.6-6.7
	c4.8-2.8,9.7-6.1,14.3-10.3c2.3-2.1,4.5-4.5,6.4-7.2c0.5-0.7,0.9-1.4,1.4-2.1l0.3-0.5l0.2-0.2l0.2-0.3l0.7-1.1
	c0.5-0.8,0.8-1.5,1.2-2.3c0.4-0.8,0.8-1.5,1.2-2.4c3-6.4,5.1-13.6,5.2-21.1c0-1.9-0.1-3.8-0.4-5.7c-0.3-1.9-0.7-3.8-1.4-5.6
	c-1.2-3.7-3.2-7.2-5.8-10.2c-1.3-1.5-2.7-2.9-4.3-4.2c-0.8-0.6-1.6-1.2-2.5-1.8l-1.3-0.8l-1.4-0.8c-1.8-1-3.7-1.9-5.7-2.6
	c-2-0.8-4.1-1.4-6.2-2c-4.2-1.1-8.7-1.8-13.2-2.3c-4.5-0.4-9.2-0.6-13.9-0.4c-9.4,0.3-18.9,1.5-28.5,3.6c-9.6,2-19.2,4.8-28.7,8.2
	c-9.6,3.4-19.4,6.9-29.2,10.4c-4.9,1.7-9.8,3.5-14.8,5.2c-4.9,1.8-9.9,3.6-14.9,5.4c-9.9,3.6-19.9,7.2-29.8,10.8
	c-19.9,7.2-39.9,14.4-59.5,21.5c-9.8,3.5-19.6,7-29.2,10.5c-9.6,3.4-19.1,6.9-28.5,10.2c-18.8,6.5-37.3,12.2-55.1,16.6
	c-17.8,4.4-34.8,7.7-50.7,9.7c-2,0.2-4,0.5-5.9,0.7s-3.9,0.4-5.8,0.6c-1,0.1-1.9,0.2-2.9,0.2l-1.4,0.1l-1.4,0.1
	c-1.9,0.1-3.8,0.2-5.6,0.2c-7.4,0.1-14.5-0.4-21.1-2c-6.6-1.5-12.6-4.1-17.4-7.8c-4.8-3.7-8.1-8.4-10.1-13c-1.9-4.6-2.6-9-2.9-12.8
	c-0.2-3.8,0-7,0.2-9.5c0.3-2.6,0.6-4.5,0.9-5.8c0.2-1.3,0.4-2,0.4-2l5-3.5c0,0-1,5-1.2,6.2c-0.2,1.2-0.5,3.1-0.7,5.4
	c-0.2,2.4-0.3,5.3,0,8.8c0.3,3.4,1,7.3,2.7,11.2c1.7,3.9,4.5,7.8,8.7,10.9c4.1,3.1,9.5,5.3,15.5,6.6c6,1.3,12.7,1.8,19.8,1.6
	c1.8,0,3.6-0.1,5.4-0.3l1.4-0.1l0.7-0.1l0.7-0.1c0.9-0.1,1.9-0.2,2.8-0.3c1.9-0.2,3.8-0.3,5.7-0.6c1.9-0.2,3.9-0.5,5.8-0.7
	c15.6-2.1,32.4-5.4,49.9-9.9c17.5-4.6,35.8-10.1,54.5-16.6c9.4-3.3,18.9-6.7,28.5-10.2c9.6-3.5,19.4-7,29.2-10.5
	c9.8-3.5,19.7-7.1,29.6-10.7c10-3.5,19.9-7.1,29.9-10.6c10-3.5,20-7.1,29.9-10.6c5-1.8,9.9-3.5,14.9-5.3c5-1.7,9.9-3.4,14.8-5.2
	c9.8-3.4,19.6-6.8,29.3-10.2c9.7-3.4,19.6-6.2,29.5-8.2c9.9-2,19.8-3.2,29.5-3.3c4.9-0.1,9.7,0.1,14.5,0.6c4.8,0.5,9.4,1.3,14,2.6
	c4.6,1.2,8.9,2.9,13,5.2l1.4,0.8c0.6,0.4,1,0.7,1.5,1c1,0.7,1.9,1.4,2.8,2.1c1.8,1.5,3.4,3.1,4.9,4.9c2.9,3.5,5.1,7.6,6.4,11.7
	c0.7,2.1,1.2,4.2,1.5,6.3c0.3,2.1,0.4,4.2,0.4,6.3c0,4.2-0.7,8.2-1.8,12c-1,3.8-2.5,7.4-4.1,10.7c-0.4,0.8-0.8,1.7-1.3,2.5
	c-0.4,0.8-0.9,1.6-1.3,2.4l-0.7,1.1l-0.2,0.3l-0.2,0.3l-0.4,0.6c-0.5,0.8-1,1.5-1.5,2.2c-2.1,2.9-4.5,5.4-7,7.6
	c-5,4.4-10.2,7.8-15.1,10.5c-5,2.7-9.7,4.9-14,6.6c-8.7,3.5-15.8,5.5-20.6,6.8c-2.4,0.6-4.3,1.1-5.5,1.4c-1.3,0.3-2,0.4-2,0.4
	L609.2,221.7z"/>
<g>
	<path class="st0" d="M471.7,308.3c-0.2-0.6-0.4-1.2-0.5-2c0-0.4-0.1-0.7-0.1-1.1c0-0.4,0-0.8,0-1.2c0-0.8,0.2-1.7,0.4-2.6
		c0.3-0.9,0.6-1.7,1.1-2.5c0.5-0.8,1.1-1.5,1.8-2.1c0.7-0.6,1.4-1.1,2.1-1.5c0.7-0.4,1.5-0.6,2.2-0.9c0.7-0.2,1.4-0.3,2-0.4
		c0.1,0,0.2,0,0.3,0c-6.5-3.5-16.8-4.2-18,1.4C462,300.3,467.5,305.2,471.7,308.3C471.7,308.4,471.7,308.4,471.7,308.3z"/>
	<path class="st0" d="M496.7,315.7c-0.3-0.9-0.6-1.9-0.8-3c-0.2-1.1-0.2-2.2-0.2-3.4c0-0.6,0.1-1.2,0.2-1.8c0.1-0.6,0.2-1.2,0.5-1.8
		c0.4-1.2,1-2.2,1.6-3.2c0.7-1,1.5-1.8,2.3-2.5c0.8-0.7,1.7-1.3,2.6-1.8c0.9-0.5,1.7-0.8,2.5-1.1c0.1,0,0.2-0.1,0.3-0.1
		c-8.5-2.9-18.1-2.3-21.5-1.6c-0.1,0-0.1,0-0.2,0.1c-0.6,0.2-1.5,0.6-2.5,1c-1,0.5-2.1,1-3,1.7c-1,0.7-1.9,1.6-2.5,2.6
		c-0.4,0.5-0.6,1-0.8,1.6c-0.1,0.3-0.2,0.6-0.3,0.9c-0.1,0.3-0.1,0.6-0.2,0.9c-0.1,0.6-0.2,1.2-0.2,1.8c0,0.6-0.1,1.2,0,1.7
		c0,1,0,1.8,0.1,2.5c0.3,0.2,0.6,0.5,0.9,0.6c7.1,7.8,17.6,7,21.8,6C497,316.6,496.8,316.2,496.7,315.7z"/>
	<path class="st0" d="M533.2,317.7c0.3-1.2,0.7-2.6,1-4c0.4-1.4,0.9-2.9,1.4-4.4c0.3-0.8,0.5-1.5,0.8-2.3c0.3-0.8,0.6-1.5,0.9-2.3
		c0.6-1.6,1.3-3.1,2-4.7c0.4-0.8,0.7-1.5,1.1-2.3c0.4-0.8,0.8-1.5,1.2-2.2c0.8-1.5,1.7-2.9,2.6-4.2c0.4-0.7,0.9-1.3,1.4-1.9
		c0.5-0.6,0.9-1.2,1.4-1.8c0,0,0.1-0.1,0.1-0.1c-11.4-1.1-28.4,6.7-38.3,11.2c0,0-0.1,0-0.1,0c-0.7,0.4-1.4,0.8-2.3,1.3
		c-1.2,0.8-2.6,1.8-3.8,3c-0.6,0.6-1.2,1.3-1.6,2c-0.5,0.7-0.9,1.5-1.2,2.3c-0.2,0.4-0.2,0.8-0.4,1.2c-0.1,0.4-0.2,0.9-0.2,1.3
		c-0.1,0.9-0.1,1.8-0.1,2.6c0,0.9,0.2,1.8,0.3,2.6c0.2,0.8,0.3,1.6,0.5,2.3c0,0.1,0.1,0.3,0.1,0.4c11.9,5.1,26.8,2.7,32.7,1.3
		C533,318.6,533.1,318.2,533.2,317.7z"/>
	<path class="st0" d="M689.8,243.1c-6.4,2.1-21.4,0.8-32.1,5.6c-7.1,3.1-19.1,11.7-24.5,13.8c-5.3,2-12.2,3.4-20,2.2
		c-7.8-1.2-17.4-1.4-20.7-1.2c3.7-1.4,8.2-2.1,13.7-1.5c5.5,0.6,16.9,0.7,23.9-2.2c7-2.9,18.7-12.7,26.1-17.7c4.7-3.1,14.4-4.4,21-5
		c-27.9-9.8-56.8,2-71.9,7.8c-16.9,6.5-33.8,22.1-37.9,28.4c-5.6,3-9.4,6-14,11.2c-0.5,0.6-1,1.2-1.5,1.9c-0.8,1-1.5,2.1-2.3,3.2
		c-0.7,1.2-1.6,2.4-2.3,3.7c-0.4,0.7-0.8,1.3-1.2,2c-0.4,0.7-0.8,1.4-1.2,2.1c-0.4,0.7-0.8,1.4-1.2,2.1c-0.4,0.7-0.7,1.5-1.1,2.2
		c-0.4,0.7-0.8,1.5-1.1,2.2c-0.3,0.8-0.7,1.5-1,2.2c-0.3,0.7-0.7,1.5-1,2.2c-0.3,0.7-0.6,1.5-0.9,2.2c-0.6,1.4-1.2,2.8-1.7,4.1
		c-0.5,1.3-1,2.6-1.5,3.8c0,0,0,0.1,0,0.1c43.7,2.4,120-3.4,153-23.2c33.1-20,35.7-58.7,35.9-70.5
		C721.2,233.6,709.5,238.4,689.8,243.1z"/>
</g>
<path class="st0" d="M633.4,205.2c0,0,4.9-2.5,15.4-2.8c0.6,0,1.2,0,1.8,0c7.6-5,14.4-11,18.5-18.3c3.8-6.7,6.1-12.8,7.2-18.3
	c-20-12.9-34.5-14.2-48-14.7c-13.7-0.6-28.2,4.2-45.1,10.3c-15,5.4-26.6,11.8-32.6,16.3c0.2,0,0.4,0,0.6,0c2,0.2,4.5,0.9,6.7,2.6
	c1.1,0.8,2.1,1.9,2.8,3.1c0.8,1.2,1.3,2.5,1.7,3.9c0.1,0.4,0.1,0.6,0.2,1c0,0.2,0.1,0.3,0.1,0.5l0.1,0.5c0.1,0.7,0.2,1.4,0.2,2.1
	c0,1.4-0.2,2.8-0.6,4.1s-1.1,2.5-1.9,3.4c-0.8,1-1.7,1.7-2.6,2.3c-0.9,0.6-1.8,1-2.5,1.3c-0.1,0.1-0.2,0.1-0.4,0.1
	c7.2,4,24.5,9.9,30.7,10.7c6.8,0.9,17.4,0.7,22.1,0.2c0.8,0.8,3.5,2.8,7.2,4.8c7.3-2.2,19.5-6.4,30.9-13
	C640.2,204.7,635.5,205,633.4,205.2z"/>
<path class="st0" d="M553,201.9c1-0.4,2.5-1.1,3.9-2.2c0.7-0.6,1.4-1.2,2-2.1c0.6-0.8,1-1.8,1.3-2.8c0.3-1,0.4-2.2,0.3-3.3
	c0-0.6-0.1-1.2-0.2-1.8l-0.1-0.4c0-0.1-0.1-0.3-0.1-0.4c-0.1-0.3-0.1-0.7-0.2-0.9c-0.3-1.1-0.8-2.2-1.3-3.2c-0.6-1-1.3-1.8-2.2-2.5
	c-1.7-1.4-3.7-2.1-5.5-2.5c-0.9-0.2-1.7-0.3-2.5-0.4c-3.9-0.1-6.9,1-9.5,3.2c0.4,0,0.9,0,1.3,0.1c1.5,0.1,3.4,0.6,5.2,1.6
	c0.9,0.5,1.7,1.1,2.5,1.9c0.8,0.8,1.4,1.7,1.9,2.6c1,1.9,1.4,4.1,1.4,6.1c0,0.2,0,0.5,0,0.8c0,0.3,0,0.4-0.1,0.7
	c-0.1,0.5-0.1,0.9-0.3,1.4c-0.2,0.9-0.6,1.7-1,2.4c-0.7,1.2-1.5,2-2.2,2.6c1.4,0.2,2.9,0,4.3-0.4C552.4,202.1,552.7,202,553,201.9z"
	/>
<g>
	<path class="st0" d="M304.8,251.4c-0.3,0.4-0.5,0.9-0.8,1.4c-0.3,0.5-0.5,1-0.7,1.5c-0.9,2-1.7,4.1-2.2,6.2c-1,4.3-1.1,8.8-0.5,13
		c0.6,4.1,1.8,7.9,3.2,11c0.7,1.6,1.5,3,2.2,4.2c5.5,0.4,10.8,1.5,16,3.3c6.3,2.2,11.9,5.3,16.7,9.1c3.8-2.3,8.4-5,11.7-7
		c-1.4-0.7-2.9-1.5-4.4-2.4c-2.4-1.5-4.9-3.2-7.3-5.4c-2.4-2.1-4.8-4.7-6.8-7.6c-2-2.9-3.7-6.3-4.7-9.9c-1.1-3.6-1.5-7.5-1.4-11.3
		c0.1-3.8,0.8-7.6,1.8-11.2c1-3.6,2.4-7,3.9-10.2c0.3-0.7,0.6-1.4,1-2c-3,1.1-5.7,2.2-8,3.1c-3.1,1.3-5.6,2.4-7.2,3.1
		c-1.6,0.8-2.5,1.2-2.5,1.2s0.9-0.5,2.5-1.3c0.8-0.4,1.8-0.9,3-1.5s2.5-1.2,4.1-1.9c2.5-1.2,5.5-2.4,8.8-3.9c0.2-0.5,0.5-1,0.8-1.4
		c0.4-0.7,0.9-1.5,1.4-2.2c0.5-0.7,1-1.4,1.5-2c0.1-0.2,0.3-0.3,0.4-0.5c-12.6,2.9-16.9,7.3-26.2,16.1c0,0-0.1,0-0.1,0
		c-0.2,0.3-0.5,0.6-0.7,0.9c-1.2,1.6-2.4,3.2-3.6,5c-0.3,0.4-0.6,0.9-0.9,1.4C305.3,250.4,305.1,250.9,304.8,251.4z"/>
	<path class="st0" d="M269.4,296.2c3.6-2,7.5-3.6,11.5-4.8c-0.8-1.6-1.5-3.2-2.1-5c-0.7-2.1-1.2-4.4-1.6-6.7
		c-0.3-1.9-0.4-3.9-0.3-5.9c-3.5,2.9-9.3,9.2-8.8,19.5C268.2,294.3,268.6,295.3,269.4,296.2z"/>
	<path class="st0" d="M283.1,290.8c6.8-1.8,13.9-2.6,21-2.2c-0.6-1-1.3-2.1-1.9-3.3c-1.6-3.1-3.1-7.1-3.9-11.5
		c-0.4-2.2-0.6-4.5-0.5-6.9c0-2.4,0.3-4.7,0.8-7.1s1.3-4.6,2.3-6.8c0.2-0.5,0.5-1.1,0.8-1.6c0.3-0.5,0.5-1,0.9-1.5
		c0.3-0.5,0.6-1,0.9-1.5c0.3-0.4,0.6-0.9,0.9-1.3c0.7-0.9,1.4-1.9,2-2.7c-18.8,8-24.1,22.1-26.7,27c0,0.4-0.1,0.8-0.1,1.3
		c-0.3,4.4,0.2,8.9,1.5,12.9C281.7,287.5,282.3,289.2,283.1,290.8z"/>
</g>
<path class="st0" d="M280.5,402.9c-0.7-0.2-1.4-0.5-2-0.8c-13.5-3-25.1-10.9-32.9-21.6c0.4,1.7,1,3.7,1.7,5.8c0.7,2,1.6,4.2,2.7,6.4
	c0.5,1.1,1.2,2.2,1.8,3.3c0.7,1.1,1.3,2.2,2.1,3.3c1.5,2.2,3.3,4.4,5.2,6.4c1,1,2,2,3.1,2.9c0.5,0.5,1,1,1.6,1.4l1.7,1.3
	c0.5,0.5,1.1,0.8,1.8,1.2l1.8,1.2c1.2,0.7,2.4,1.4,3.7,2.1c1.3,0.6,2.5,1.2,3.8,1.7c1.3,0.5,2.5,1,3.8,1.4c1.3,0.4,2.5,0.8,3.8,1.2
	c1.2,0.3,2.5,0.6,3.7,0.9c1.2,0.3,2.4,0.4,3.5,0.6c0.6,0.1,1.1,0.2,1.7,0.3c0.5,0.1,1.1,0.1,1.6,0.2c1.1,0.1,2.1,0.2,3,0.4
	c1,0.1,1.9,0.1,2.8,0.2c0.9,0,1.7,0.1,2.4,0.1c0.8,0,1.5,0,2.1,0c1.1,0,2,0,2.6,0c7.8-4,15.8-9.5,16.1-22.1
	C309.5,406.9,293.7,407.6,280.5,402.9z"/>
<path class="st0" d="M588.5,235c6.1-0.2,13.3-0.6,18-1.2c2.9-1.1,6.8-2.5,7.6-2.8c-0.5,0-2.6-2.2-2.6-2.2l2.5-1.6c0,0-2.2-0.3-6-0.4
	c-6.5,0.3-18-1.1-18-1.1c8.1,0.3,14.7,0.1,17.2,0c0.1-1.8,0.7-5.2,0.7-5.2s-14.3,1.7-19.3,2c-3-2.2-14-5.9-19.1-7.8
	c-3.5-1.3-8.3-2.5-12.3-3c-0.3,0-0.5,0-0.8,0c-1.4,0.1-3.1,0.2-5,0.4c-1.9,0.2-4.1,0.5-6.4,0.9c-2.3,0.4-4.8,1-7.3,1.9
	c-2.5,0.9-5.1,2.1-7.1,3.9c-0.5,0.5-1,1-1.4,1.5c-0.2,0.4-0.5,0.7-0.7,1.1c2.3,0.3,4.4,0.6,6.5,0.8c4.7,0.6,8.8,1.1,12.2,1.5
	c6.8,0.8,10.6,1.3,10.6,1.3s-1-0.1-2.8-0.2c-1.8-0.1-4.5-0.3-7.9-0.6c-3.4-0.3-7.5-0.6-12.2-1c-2.2-0.2-4.5-0.4-6.9-0.6
	c-0.5,1.2-0.9,2.4-1.1,3.7c-0.6,2.9-0.3,6,0.7,8.8c1,2.9,2.7,5.5,4.7,7.8c2,2.3,4.3,4.3,6.6,6.1c4.7,3.6,9.5,6.3,13.8,8.4
	c4.1,2.1,7.7,3.6,10.3,4.6c16-5.2,20.3-12.5,28.6-16.5c6.1-2.9,22.1-8.1,22.1-8.1l-1.5-3.4C609.9,234.6,598.9,235.9,588.5,235z
	 M583,237.5c-1.7,0-3.1-0.8-3.1-1.8s1.4-1.8,3.1-1.8c1.7,0,3.1,0.8,3.1,1.8S584.7,237.5,583,237.5z M587,224.1
	c-0.2,1-1.8,1.4-3.4,1.1c-1.7-0.4-2.9-1.5-2.7-2.4c0.2-1,1.8-1.4,3.4-1.1C586.1,222.1,587.2,223.2,587,224.1z"/>
<g>
	<path class="st1" d="M268.2,117.3c0,0-2.8,5.8-6.2,12.6l-6.6,0.6c3.3-6.8,6.2-12.6,6.2-12.6l-6.4,0.5l-13.9,28.5c0,0,1,2.4,4.4,3.4
		c0.4-0.9,3.4-7.1,6.7-13.7l6.6-0.6c-3.7,7.6-7.3,14.9-7.7,15.7c2.4,0.4,6.5,0.4,6.5,0.4l17.3-35.4L268.2,117.3z"/>
	<path class="st1" d="M294.3,120.7l2.9-5.9l-15.8,1.3l-17.6,36c0,0,7.9-0.6,16.9-3.5c1.2-2.4,3.5-7.2,3.5-7.2l-9.8,1.5l4.4-8.6
		l7.3-0.6l3-6.1l-7.2,0.6l3.4-6.7L294.3,120.7z"/>
	<path class="st1" d="M321.5,112.8l-21.4,1.8l-2.9,5.9l7.2-0.6l-13.9,26.4c0,0,8.1-3.4,11.8-6.1c1.3-2.6,7.2-17.4,8.6-20.8l7.7-0.7
		L321.5,112.8z"/>
</g>
<g>
	<path class="st2" d="M234.5,147.3c0,0,3.4,12.9,23.6,12.4s40-7.9,55.6-22.2c15.6-14.3,20.9-24.9,20.9-24.9l12-1l-14,48.2l27.8-49.3
		l13.1-1.1l-11.3,47.5c0,0,15.6-37.2,23.8-49.9c9.5-14.7,18.2-20.3,29.2-19.5c7.4,0.5,14.8,5.5,9.3,20.6c-1.3-3.6-5.8-5.1-10.5-4.6
		c-4.7,0.4-18.5,6.7-30.2,28.5c-11.7,21.7-24.5,54.3-24.5,54.3l-14.1,3.6l11.2-53.5l-30,57.1l-14.7,2.9l14.7-61
		c0,0-15.3,21-27.8,31.5c-12.4,10.5-31.2,17.4-50.4,17.5c-18.2,0.1-25.7-12.1-25.7-12.1L234.5,147.3z"/>
	<polygon class="st2" points="385.5,133.4 373.7,182.6 396.4,176.5 398.7,166.1 386.7,169.2 389.5,156.6 397.8,154.5 399.7,146.6 
		391.1,148.7 393.4,139.2 406,136 408,127.7 	"/>
	<polygon class="st2" points="413.3,126.3 401.6,175 424.5,168.3 426.7,158.6 414.2,162.1 417.1,149.4 426.3,146.9 428.2,138.9 
		418.7,141.7 421,132 433.6,128.4 436,120 	"/>
	<path class="st2" d="M482.2,87.7c-7.5-0.1-13.9,2.9-18.3,10.3c-3.2,5.4-5.2,14.1-9,22c-2.8,5.7-6.3,7.7-6.3,7.7s-0.1,0-0.1,0
		l4.7-22.4l-10.4,3l-13.4,58.3l11.8-4.4l6.5-30.9c1.6,0.6,4.3,2.1,4.5,6.8c0.2,6.2-2.6,22-2.6,22s8-3,10-3.7c1.2-5,2-18.1-1-23.1
		c-2.1-3.4-5.5-4.3-8.1-4.4c4.7-1.1,9.4-6.4,12-10.9c5.3-9.2,11.1-14.8,14.3-16.9c4.7-3,12.3-4.9,17.5-2.7
		C494.8,90.5,487.5,87.8,482.2,87.7z"/>
	<polygon class="st2" points="471.8,110.5 463.8,155.4 485.9,147.5 487.9,138.5 474.7,143.2 477,131.3 485.6,128.6 487.3,120.5 
		478.4,123.2 479.9,114.6 493.4,109.7 495,101.7 	"/>
	<polygon class="st2" points="491,146.1 500.1,100.5 509.8,97 513.6,118.1 518.2,94.3 526.6,91.5 517.5,136.6 508.9,139.8 
		505.1,117 500.4,142.8 	"/>
	<g>
		<path class="st2" d="M542.2,87.2c-9.9,2.8-10.5,2.9-10.5,2.9l-9.1,44.8c0,0,15.7-5.3,17.3-5.8s8.9-3.4,10.5-10.8
			c1.2-5.7,3.2-15.5,3.6-17.5C556.1,90.3,552.1,84.3,542.2,87.2z M545.8,99.3c-0.4,2-2.4,11.7-3.2,15.8s-2.2,4.8-3.5,5.2
			c-1.1,0.4-5.4,2.2-5.4,2.2l5.6-26.6c0,0,1.2-0.2,3.9-0.9C546,94.1,546.3,96.9,545.8,99.3z"/>
	</g>
	<path class="st2" d="M568.5,81l-3.2,38.9l9.1-2.5c0,0,17.3-38.2,19.3-42.5c-1.1,0.2-8.3,2.2-8.3,2.2l-12.5,30.3
		c0,0,4.1-27.8,4.2-28.6C575.4,79,568.5,81,568.5,81z"/>
	<path class="st2" d="M599.7,74.2l-21.2,42.4l8.8-2.4l5.6-13.3l4.6-0.9l-1.9,12.5l7.6-1.3l2.4-38.5L599.7,74.2z M594.8,96.3l5-12
		l-1.8,11.4L594.8,96.3z"/>
	<path class="st2" d="M604.8,110.9l8.1-39.2c0,0,6.4-0.8,7.3-0.9c0.1,1.2,0.8,24,0.8,24l5.9-24.6c0,0,4.9-0.3,6.3-0.2
		c-0.5,2.2-9,39.5-9,39.5s-5,0-6.9,0.2c-0.4-4-1.2-24.8-1.2-24.8l-5.2,25.4C611.1,110.1,605.9,110.6,604.8,110.9z"/>
	<g>
		<path class="st2" d="M660.3,78.7c-0.2-4.9-4.9-6.1-6.8-6.5c-3.7-0.8-8.6-1.2-8.6-1.2l-8.5,39.5c0,0,7.3,0.4,9,0.6
			c4.8,0.4,8.7-2.8,10.3-8C657.3,97.6,660.5,83.7,660.3,78.7z M653.8,83.2c-0.4,2.5-3.3,17-4.6,19.9c-0.9,1.9-4.7,1.4-4.7,1.4
			l5.6-26C654.4,78.4,654,82.1,653.8,83.2z"/>
	</g>
	<path class="st2" d="M680.5,91.7c0.4-1.8,1.2-6.2,1.2-6.2s-9.4-5.7-15.8-8.3l-8,36.9c0,0,10.9,3.8,16,7.2c0.7-3.2,1.7-7.3,1.7-7.3
		s-4.7-2.5-9.2-4.3c0.2-0.9,0.8-3.7,1.5-6.9c2.5,1.1,5.8,2.5,6.6,2.9c0.5-2.2,1.5-6.7,1.5-6.7s-3.7-1.8-6.6-3.1
		c1-4.7,1.9-8.7,1.9-8.7S678.9,90.7,680.5,91.7z"/>
</g>
<path class="st3" d="M343.4,435.1c0-0.1,0.1-0.2,0.1-0.3C343.5,434.9,343.5,435,343.4,435.1L343.4,435.1z"/>
<g>
	<path class="st2" d="M381.4,503.8c-8.3-5.5-16.5-15.7-18-29c-0.9-7.8,1.4-19.2-1-26c-2.2-6.4-6.1-10.3-9.8-11.9
		c-0.9-0.4-2.6-0.8-4.4-1.1c1.9-1,4.4-2,7.6-2.2c9.7-0.6,17.3-1,27-4.2c8.5-2.9,20.1-10.5,24.7-15.7c4.6-5.1,7.5-10.7,7.5-10.7
		h-38.4c0,0-2.7,8.3-5.9,12.4c-3.9,4.9-9.8,8-17.3,11.1c-6,2.5-8.7,6.3-9.7,8.1c5.5-10.4,17-31.5,17-31.5H334l-38,89l22.2-0.1
		c0,0,19.3-44.6,22.8-52.1c1.5,1.3,3,3.6,2.1,8c-0.9,4.4-5.3,18.8-6.5,28.2s-0.4,26.9,9.1,36.8c9.4,9.9,27.6,13.4,43,10.6
		c15.5-2.8,28.5-10.6,33-14C402.4,513.6,389.3,509,381.4,503.8z M343.4,435.1L343.4,435.1c0-0.1,0.1-0.2,0.1-0.3
		C343.5,434.9,343.5,435,343.4,435.1z"/>
	<path class="st2" d="M390.3,464.1c0,0,13.2,0,17.4,0c4.2,0,5.4-2.8,6.2-4.6c1-2.4,6.5-17.9,8.3-22.1c1.8-4.2-1-5.9-3.5-5.9
		s-30.6,0-30.6,0c-3.5,0-4.8,2.1-5.6,3.8c-0.9,1.6-8.4,22.2-10.4,27.8c-2.3,6.3-4.1,13.1-2.8,17c2,6.2,6.8,11.7,16.3,11.8
		c10.3,0.1,23.4,0.1,23.4,0.1s-1.5-2.2-2.1-5.3c-1.3-6.6,1.6-12.6,1.6-12.6s-16.5,0-18.4,0s-2.6-1.7-2-3
		C388.6,469.4,390.3,464.1,390.3,464.1z M398.1,443.7h6.3l-4.6,12.7h-6.3L398.1,443.7z"/>
	<path class="st2" d="M493.8,403.2l-21.1,0.1c0,0-21.2,60-23.6,64.5c-2.4,4.4-2.5,5.9-5.1,5.9c-1.5,0-1.4,0-6.1,0
		c-3.7,0-1.5-6.2-1.5-6.2s17.6-47.5,20.1-55.1c2.2-6.5-2.9-9.5-4.6-9.5c-1.9,0-27,0-27,0s-1.1,3.8-6.6,10.7c-4.9,6.1-11.2,9-11.2,9
		s11.7,0,21.4-0.1c7.5-0.1,4,7.5,4,7.5c-14.4,35.6-15,39.5-17.8,46.7c-2.3,6.1-0.4,15.2,7.6,15.2c1.9,0,8.4,0,12.4,0s6.3-1.3,9.3-5
		c-0.2,2.5,1.7,4.7,2.9,4.9s7.2,0.1,9.8,0.1s5.1,0,6.4,0c1.5,0,3.9-0.4,2.4-4.5c-0.9-2.4-1.2-6,1-11
		C467.2,474.8,493.8,403.2,493.8,403.2z"/>
	<path class="st2" d="M532.2,474.8c-1-7.8,1.7-18.6-0.7-25.5c-2.2-6.4-6.1-10.3-9.8-11.9c-1-0.4-2.8-0.8-4.8-1.1
		c1.7-1.4,4.2-1.9,6.8-2.5c9.8-2.1,15.1-1.5,22.5-5c7.8-3.6,12.9-9.1,16.9-14.2c4-5.1,6.4-11.6,6.4-11.6h-29.4c0,0-1.7,8.1-4.5,12.1
		c-3.3,4.8-6.3,7.1-13.8,10.9c-5.6,2.8-8.5,7.2-9.7,9.4l13.4-32.4l-23.4,0l-30.6,88.9h21.1l17.7-51.6c1.3,1.4,2.4,3.6,1.6,7.5
		c-0.9,4.4-4.8,18.4-5.9,27.8c-0.6,5.3-0.9,10.9-0.3,16.4h32.7C535.3,487,533,481.3,532.2,474.8z"/>
	<path class="st2" d="M688.9,381.8c11.4-2.3,16.4-23.9,16.4-23.9s-26.2,2.2-36.9,6.1c-10.7,3.9-15.6,13.2-17.6,17.6
		s-25.1,65.3-25.1,65.3s-3.4-29.4-4.2-36.5s-6.5-7.2-9.2-7.2s-27.3-0.2-35.4-0.2c-3,13.5-12.8,19.7-12.8,19.7s26.7,0,33.1,0.1
		c5.7,0.1,2.8,6.6,1.9,9.2c-0.8,2.2-22.4,59.7-22.4,59.7l20.3,0.1l13.3-35.5l-0.3,35.6h18.7c0,0,27.4-78.3,38.9-97.8
		C669.6,390.7,672.9,385,688.9,381.8z"/>
	<path class="st2" d="M690.4,416.9c0.9-1.9,1.7-3.7,6.3-3.7c4.5,0,37.4,0,37.4,0l8.7-19.5c0,0-51.3,0-58.9,0
		c-6.9,0-10.9,6.2-13.5,11.4c-2.5,5.1-10.3,27.2-12,32c-1.2,3.5-0.8,11.7,8.6,11.7c9.4,0,18.4,0,21.8,0s5.4,3.2,3.8,7.7
		c-1.7,4.9-1.6,3.5-2.6,5.5c-1.4,2.8-4.2,4.6-9.3,4.6c-4.9,0-35.2,0-35.2,0l-8.7,25.2c0,0,48.3-0.2,52.9-0.2
		c5.5,0,14.9-0.6,19.8-11.6c3.9-8.7,12.5-30.4,14.4-36.8c2.2-7.5-0.1-13.9-8.7-13.9s-20.3,0-24.1,0c-3.8,0-5.5-0.5-3.7-5
		C689.2,419.4,689.5,418.8,690.4,416.9z"/>
	<path class="st2" d="M558.3,464.1c0,0,11.7,0,16,0s5.2-2.9,6.2-4.6c0.9-1.8,7-17.8,8.7-22s-1.2-5.9-3.7-5.9s-31.1,0-31.1,0
		c-3.5,0-4.7,2.1-5.5,3.8s-8.3,23.2-10.1,27.2c-2.7,6.1-2.2,11-0.9,15.5c1,3.7,5.7,13.7,16.3,13.7c11.5,0,15.3,0,15.3,0l6.5-17.9
		c0,0-15,0.5-18.8-0.4c-1.9-0.5-1.6-2.1-1-3.3C556.8,468.3,558.3,464.1,558.3,464.1z M565.8,443.5h6.2l-4.6,12.8h-6.3L565.8,443.5z"
		/>
</g>
<rect x="451.4" y="510.2" transform="matrix(0.7071 -0.7071 0.7071 0.7071 -229.832 471.6841)" class="st1" width="6.1" height="6.1"/>
</svg>
